<svg xmlns="http://www.w3.org/2000/svg" width="280" height="473" viewBox="0 0 280 473" fill="none"><g clip-path="url(#clip0_1749_1122)"><path d="M238.127 67.7265C226.398 62.4012 184.39 44.8379 140.534 44.8379H139.584C95.7314 44.8379 53.7195 62.4012 41.9948 67.7265C41.1343 68.1175 40.4636 68.8343 40.1298 69.7197C39.796 70.6052 39.8263 71.587 40.214 72.4501C40.5982 73.3106 41.3063 73.9841 42.1841 74.3238C43.062 74.6635 44.0385 74.6419 44.9005 74.2636C59.6202 67.863 98.8074 52.6637 139.588 52.6637H140.538C181.323 52.6637 220.51 67.8545 235.226 74.2636C236.088 74.6407 237.064 74.6618 237.941 74.3222C238.819 73.9827 239.527 73.3098 239.912 72.4501C240.3 71.5864 240.329 70.6042 239.995 69.7187C239.66 68.8332 238.988 68.1167 238.127 67.7265Z" fill="#DCA720"></path><path d="M230.872 81.9616C214.29 75.0106 177.757 61.4797 139.311 61.804C100.865 61.4669 64.2129 75.0319 47.6314 81.9616C47.1876 82.1479 46.7855 82.4211 46.4486 82.7651C46.1116 83.1091 45.8466 83.517 45.6692 83.965C45.4918 84.4129 45.4056 84.8918 45.4155 85.3736C45.4254 85.8554 45.5313 86.3304 45.727 86.7706L45.8718 86.9158C46.0501 87.33 46.3091 87.7044 46.6337 88.017C46.9583 88.3296 47.342 88.5742 47.7623 88.7364C48.1825 88.8985 48.6308 88.9749 49.081 88.9613C49.5311 88.9476 49.974 88.8441 50.3836 88.6568C68.0175 81.5009 103.089 69.6811 139.269 69.1093C175.448 69.6811 210.481 81.4838 228.115 88.6568C228.525 88.8413 228.968 88.9425 229.418 88.9548C229.868 88.9671 230.315 88.8901 230.735 88.7282C231.155 88.5664 231.539 88.3229 231.864 88.0118C232.189 87.7007 232.45 87.3282 232.631 86.9158L232.776 86.7706C232.972 86.3304 233.078 85.8554 233.087 85.3736C233.097 84.8918 233.011 84.4129 232.834 83.965C232.656 83.517 232.391 83.1091 232.054 82.7651C231.717 82.4211 231.315 82.1479 230.872 81.9616Z" fill="#DCA720"></path><path d="M83.4529 68.6401C102.625 63.4342 121.371 60.793 139.136 60.793H140.193C157.955 60.793 176.688 63.4342 195.876 68.6401C207.955 71.9476 219.796 76.0691 231.319 80.9762L233.786 74.8444C222.611 69.7709 183.73 53.7139 139.984 53.7139H139.345C95.5993 53.7139 56.7189 69.7709 45.5438 74.8444L48.0105 80.9762C59.5344 76.071 71.3754 71.9496 83.4529 68.6401Z" fill="#DCA720"></path><path d="M198.953 63.5541C194.398 62.2739 189.609 61.0279 184.633 59.91C184.219 59.8159 183.784 59.8859 183.419 60.1053C183.055 60.3248 182.789 60.6767 182.678 61.0877L182.226 62.7945C182.169 63.0102 182.157 63.2351 182.19 63.4557C182.222 63.6763 182.299 63.8881 182.416 64.078C182.533 64.2679 182.687 64.4321 182.869 64.5606C183.05 64.6891 183.257 64.7793 183.474 64.8256C188.378 65.8924 193.112 67.0786 197.623 68.3203C197.833 68.3785 198.051 68.3945 198.267 68.3675C198.482 68.3406 198.69 68.2712 198.879 68.1633C199.067 68.0553 199.233 67.9111 199.365 67.7388C199.498 67.5666 199.595 67.3698 199.651 67.1597L200.077 65.5638C200.191 65.148 200.136 64.7044 199.926 64.3284C199.715 63.9525 199.366 63.6743 198.953 63.5541Z" fill="#343E88"></path><path d="M139.669 54.0898L133.854 57.2816L139.716 60.4307L145.48 57.2816L139.669 54.0898Z" fill="#B62520"></path><path d="M80.428 63.5411C84.9568 62.261 89.7199 61.032 94.6662 59.9183C95.0913 59.8276 95.535 59.903 95.9064 60.1291C96.2778 60.3551 96.549 60.7148 96.6645 61.1345L97.0905 62.7516C97.1467 62.9728 97.158 63.2031 97.1239 63.4288C97.0897 63.6544 97.0108 63.871 96.8916 64.0655C96.7725 64.26 96.6155 64.4286 96.4301 64.5614C96.2447 64.6941 96.0347 64.7883 95.8124 64.8383C90.9427 65.8965 86.235 67.0742 81.753 68.3074C81.3198 68.4227 80.8586 68.3624 80.4695 68.1395C80.0803 67.9167 79.7945 67.5493 79.6739 67.1168L79.2692 65.6064C79.1579 65.1788 79.2165 64.7248 79.4326 64.3396C79.6487 63.9544 80.0055 63.6682 80.428 63.5411Z" fill="#343E88"></path><path d="M243.84 35.2033L240.671 29.7201C240.671 29.7201 236.785 41.5484 228.285 46.4513L233.905 45.2992C233.905 45.2992 230.407 50.6927 225.18 52.7409C224.08 53.1728 222.876 53.2659 221.723 53.0081C220.57 52.7504 219.52 52.1537 218.708 51.2944C215.445 47.8998 213.614 43.376 213.596 38.6639C213.596 38.6639 206.11 46.5964 199.771 45.4443C196.162 44.7872 192.285 44.8682 193.87 32.4638L198.045 35.6343C198.045 35.6343 200.35 23.6865 206.685 17.0298L199.771 18.758L198.62 9.79717L192.43 15.5663L186.38 10.6591C186.38 10.6591 188.395 23.6438 184.075 31.5678L189.546 31.4227C189.546 31.4227 185.66 39.9312 177.45 39.9312C169.24 39.9312 165.947 27.5269 165.947 27.5269C165.947 27.5269 160.042 36.1847 152.842 36.1847C145.642 36.1847 142.191 24.5015 142.191 24.5015L148.241 28.8282C148.241 28.8282 148.241 9.6265 151.841 6.61395L145.216 9.35338L139.886 -0.0341797L134.552 9.35338L127.927 6.61395C131.527 9.64357 131.527 28.8282 131.527 28.8282L137.577 24.5015C137.577 24.5015 134.118 36.1847 126.926 36.1847C119.734 36.1847 113.821 27.5269 113.821 27.5269C113.821 27.5269 110.511 39.9312 102.318 39.9312C94.1251 39.9312 90.2227 31.4227 90.2227 31.4227L95.6931 31.5678C91.373 23.6353 93.3881 10.6591 93.3881 10.6591L87.3426 15.5663L81.148 9.79717L79.9977 18.758L73.083 17.0298C79.4225 23.6651 81.7232 35.6343 81.7232 35.6343L85.9027 32.4638C87.4875 44.8682 83.6105 44.7872 79.9977 45.4443C73.6582 46.5964 66.1727 38.6639 66.1727 38.6639C66.1556 43.3737 64.3242 47.8953 61.0602 51.2859C60.2478 52.1489 59.1958 52.7484 58.04 53.007C56.8843 53.2656 55.6777 53.1714 54.5759 52.7366C49.3526 50.6842 45.8633 45.2992 45.8633 45.2992L51.4785 46.4513C42.9833 41.5484 39.0935 29.7201 39.0935 29.7201L35.9238 35.2033C31.1734 31.7427 22.9636 33.3257 22.9636 33.3257C27.1388 34.337 36.55 44.0575 41.1087 51.0683C44.615 56.4576 55.9179 59.4317 60.9835 57.7036C67.3188 55.5402 68.9036 46.3105 68.9036 46.3105C68.9036 46.3105 75.2643 52.6172 81.1437 51.2134C87.1935 49.7711 90.9426 41.6935 90.9426 41.6935C90.9426 41.6935 95.5482 47.6076 104.478 46.0203C113.05 44.4969 114.848 35.9244 114.848 35.9244C114.848 35.9244 120.898 43.1357 127.523 42.7048C133.738 42.2781 139.712 33.0527 139.912 32.7455C140.116 33.0655 146.085 42.2994 152.301 42.7048C158.926 43.1315 164.972 35.9244 164.972 35.9244C164.972 35.9244 166.769 44.4969 175.341 46.0203C184.288 47.6076 188.877 41.6935 188.877 41.6935C188.877 41.6935 192.622 49.7711 198.676 51.2134C204.555 52.6172 210.916 46.3105 210.916 46.3105C210.916 46.3105 212.501 55.5402 218.836 57.7036C223.902 59.4104 234.199 56.8757 238.711 51.0683C243.823 44.4671 252.681 34.337 256.856 33.3257C256.809 33.3257 248.591 31.7427 243.84 35.2033Z" fill="#DCA720"></path><path d="M245.054 47.599C247.683 47.599 249.813 45.4651 249.813 42.8327C249.813 40.2004 247.683 38.0664 245.054 38.0664C242.426 38.0664 240.296 40.2004 240.296 42.8327C240.296 45.4651 242.426 47.599 245.054 47.599Z" fill="#343E88"></path><path d="M213.276 42.06C215.147 42.06 216.663 40.5412 216.663 38.6677C216.663 36.7942 215.147 35.2754 213.276 35.2754C211.405 35.2754 209.889 36.7942 209.889 38.6677C209.889 40.5412 211.405 42.06 213.276 42.06Z" fill="#D5D5D5"></path><path d="M194.13 27.6801C196.758 27.6801 198.889 25.5461 198.889 22.9138C198.889 20.2814 196.758 18.1475 194.13 18.1475C191.502 18.1475 189.371 20.2814 189.371 22.9138C189.371 25.5461 191.502 27.6801 194.13 27.6801Z" fill="#343E88"></path><path d="M166.003 30.9321C167.873 30.9321 169.39 29.4133 169.39 27.5398C169.39 25.6663 167.873 24.1475 166.003 24.1475C164.132 24.1475 162.616 25.6663 162.616 27.5398C162.616 29.4133 164.132 30.9321 166.003 30.9321Z" fill="#D5D5D5"></path><path d="M140.104 18.9926C142.732 18.9926 144.862 16.8586 144.862 14.2263C144.862 11.5939 142.732 9.45996 140.104 9.45996C137.475 9.45996 135.345 11.5939 135.345 14.2263C135.345 16.8586 137.475 18.9926 140.104 18.9926Z" fill="#343E88"></path><path d="M113.825 30.9321C115.696 30.9321 117.212 29.4133 117.212 27.5398C117.212 25.6663 115.696 24.1475 113.825 24.1475C111.955 24.1475 110.438 25.6663 110.438 27.5398C110.438 29.4133 111.955 30.9321 113.825 30.9321Z" fill="#D5D5D5"></path><path d="M86.2136 27.6801C88.8419 27.6801 90.9725 25.5461 90.9725 22.9138C90.9725 20.2814 88.8419 18.1475 86.2136 18.1475C83.5854 18.1475 81.4548 20.2814 81.4548 22.9138C81.4548 25.5461 83.5854 27.6801 86.2136 27.6801Z" fill="#343E88"></path><path d="M66.5348 42.06C68.4054 42.06 69.9218 40.5412 69.9218 38.6677C69.9218 36.7942 68.4054 35.2754 66.5348 35.2754C64.6642 35.2754 63.1478 36.7942 63.1478 38.6677C63.1478 40.5412 64.6642 42.06 66.5348 42.06Z" fill="#D5D5D5"></path><path d="M33.4187 47.599C36.0469 47.599 38.1775 45.4651 38.1775 42.8327C38.1775 40.2004 36.0469 38.0664 33.4187 38.0664C30.7904 38.0664 28.6598 40.2004 28.6598 42.8327C28.6598 45.4651 30.7904 47.599 33.4187 47.599Z" fill="#343E88"></path><path d="M-1.23978e-05 92.877L140.001 472.68L279.206 93.6791L-1.23978e-05 92.877ZM140.001 446.237L59.126 222.886H220.868L140.001 446.237ZM55.9988 214.275L14.2 101.296H265.807L223.804 214.275H55.9988Z" fill="#DCA720"></path><path d="M14.1999 101.292L56.0031 214.271H223.808L265.807 101.292H14.1999Z" fill="white"></path><path d="M155.675 147.163V163.139H145.638V150.269C145.641 148.826 145.079 147.44 144.072 146.409C143.064 145.378 141.693 144.784 140.253 144.756H139.993C138.576 144.786 137.227 145.372 136.236 146.388C135.246 147.404 134.693 148.768 134.697 150.188V163.143H124.736V147.321C124.743 145.288 125.355 143.303 126.492 141.62C132.524 132.616 129.048 109.079 129.048 109.079H134.407V112.066H137.3V109.079H143.086V112.066H145.8V109.169H151.223C148.893 129.983 151.96 138.496 154.035 141.748C155.087 143.359 155.656 145.238 155.675 147.163Z" fill="#C66432"></path><path d="M145.638 150.269V163.113H134.697V150.184C134.693 148.764 135.246 147.4 136.236 146.384C137.227 145.368 138.576 144.782 139.993 144.752H140.253C141.694 144.78 143.066 145.374 144.073 146.406C145.081 147.438 145.643 148.826 145.638 150.269Z" fill="#1D1E1C"></path><path d="M146.405 123.48H143.209C143.174 123.48 143.145 123.509 143.145 123.544V129.915C143.145 129.951 143.174 129.979 143.209 129.979H146.405C146.44 129.979 146.469 129.951 146.469 129.915V123.544C146.469 123.509 146.44 123.48 146.405 123.48Z" fill="#1D1E1C"></path><path d="M136.815 123.48H133.619C133.584 123.48 133.555 123.509 133.555 123.544V129.915C133.555 129.951 133.584 129.979 133.619 129.979H136.815C136.85 129.979 136.878 129.951 136.878 129.915V123.544C136.878 123.509 136.85 123.48 136.815 123.48Z" fill="#1D1E1C"></path><path d="M147.662 187.247C147.662 187.222 145.497 184.649 140.896 182.17C136.299 184.649 134.156 187.222 134.135 187.247L133.986 187.427L131.992 185.647L132.132 185.477C132.209 185.387 134.003 183.283 138.344 180.932C135.498 179.702 132.521 178.806 129.47 178.261C128.404 179.992 126.944 181.446 125.209 182.502C124.099 183.142 122.834 183.459 121.554 183.42C120.592 183.421 119.634 183.29 118.708 183.032L118.465 182.955L118.567 182.72C118.64 182.558 120.382 178.739 123.42 177.501C124.016 177.274 124.641 177.13 125.277 177.075C124.097 176.648 122.904 176.162 121.707 175.598C120.392 177.038 118.764 178.155 116.948 178.863C116.239 179.131 115.486 179.264 114.729 179.255C113.292 179.222 111.88 178.885 110.583 178.265L110.353 178.146L110.498 177.932C110.596 177.787 112.926 174.399 116.071 173.721C116.456 173.643 116.849 173.606 117.242 173.61C117.489 173.61 117.753 173.61 118.03 173.644C116.893 172.97 115.768 172.24 114.682 171.468C113.147 172.671 111.352 173.497 109.441 173.879C109.086 173.948 108.725 173.982 108.364 173.981C105.765 173.981 103.49 172.274 103.396 172.215L103.191 172.061L103.37 171.873C103.49 171.754 106.318 168.886 109.467 168.758H109.616C110.288 168.777 110.955 168.887 111.597 169.087C110.506 168.169 109.467 167.205 108.444 166.202C106.753 167.115 104.869 167.612 102.949 167.653H102.825C99.8725 167.653 97.491 165.123 97.3887 165.016L97.214 164.828L97.4227 164.675C97.5377 164.594 100.252 162.656 103.072 162.656C103.33 162.656 103.588 162.673 103.843 162.707C104.528 162.825 105.19 163.046 105.807 163.365C104.87 162.268 103.984 161.137 103.166 159.985C101.97 160.378 100.718 160.577 99.4592 160.574C98.8489 160.573 98.2394 160.528 97.6357 160.437C94.7259 160.011 92.8003 157.071 92.7193 156.947L92.5787 156.729L92.813 156.618C94.2623 155.949 95.8316 155.579 97.427 155.53C98.0765 155.524 98.7231 155.617 99.3442 155.808C99.9531 156.027 100.527 156.333 101.048 156.717C100.333 155.5 99.6723 154.25 99.0843 152.991C98.5692 153.064 98.0494 153.1 97.5292 153.098C96.2399 153.098 94.9592 152.888 93.7375 152.475C90.9981 151.553 89.639 148.396 89.5836 148.264L89.4814 148.025L89.7285 147.956C90.7288 147.695 91.758 147.562 92.7917 147.559C93.9617 147.524 95.1227 147.774 96.1744 148.289C96.7011 148.588 97.1819 148.962 97.6017 149.399C97.1367 148.098 96.7372 146.775 96.4045 145.434C94.6048 145.374 92.8446 144.891 91.2664 144.022C88.7826 142.665 88.003 139.384 87.9732 139.247L87.9136 138.995L88.1691 138.97C88.1691 138.97 88.5313 138.931 89.0809 138.931C90.359 138.931 92.7064 139.123 94.3382 140.391C94.8098 140.785 95.2229 141.245 95.5652 141.756C95.3018 140.344 95.1098 138.92 94.99 137.489C93.2755 137.122 91.6705 136.357 90.3036 135.257C88.1308 133.521 87.9391 130.222 87.9306 130.081V129.826H88.1862C88.3396 129.826 91.9823 130.128 93.8995 132.253C94.2872 132.708 94.6059 133.217 94.8453 133.764C94.8465 132.266 94.9246 130.769 95.0795 129.279C93.4628 128.631 92.0231 127.607 90.8788 126.292C89.0766 124.244 89.4515 121.027 89.4686 120.89L89.4984 120.638L89.7497 120.698C89.8946 120.737 93.3625 121.637 94.8622 124.014C95.1911 124.577 95.4298 125.189 95.5695 125.827C95.8507 124.265 96.2043 122.704 96.6346 121.172C95.1537 120.267 93.9105 119.021 93.009 117.536C91.6158 115.253 92.5233 112.207 92.583 112.079L92.6553 111.831L92.8897 111.938C93.026 111.998 96.2213 113.461 97.2566 116.013C97.496 116.668 97.6255 117.359 97.64 118.057C98.1981 116.491 98.833 114.95 99.536 113.457C98.2584 112.335 97.2704 110.921 96.6559 109.335C95.7016 106.89 97.0819 104.104 97.1544 103.988L97.2737 103.758L97.4867 103.903C97.6017 103.984 100.379 105.9 100.984 108.503V108.533L100.81 111.857C100.841 112.226 100.821 112.598 100.75 112.962C101.498 112.117 102.403 111.424 103.413 110.922C104.114 110.655 104.861 110.525 105.611 110.538C106.856 110.559 108.088 110.795 109.254 111.234L109.492 111.332L109.369 111.554C109.305 111.669 107.78 114.387 105.219 114.968C104.447 115.142 103.659 115.229 102.868 115.228C101.973 115.232 101.082 115.117 100.218 114.886C99.5722 116.39 99.0034 117.925 98.5134 119.486C98.958 118.888 99.4994 118.369 100.115 117.95C101.276 117.298 102.594 116.982 103.924 117.037C104.639 117.033 105.352 117.097 106.054 117.229L106.306 117.28L106.221 117.524C106.178 117.652 105.126 120.647 102.655 121.675C101.33 122.231 99.9106 122.521 98.4751 122.529C98.2025 122.529 97.9383 122.529 97.6869 122.499C97.292 124.099 96.9806 125.718 96.7539 127.351C97.1032 126.653 97.5653 126.019 98.1215 125.473C100.005 123.766 103.183 123.694 103.801 123.694H103.937H104.193L104.154 123.95C104.133 124.086 103.605 127.282 101.308 128.75C99.8441 129.703 98.1723 130.288 96.4344 130.457C96.3245 132.085 96.3059 133.717 96.3789 135.347C96.6067 134.555 96.9669 133.808 97.444 133.137C99.2078 130.884 102.821 130.346 102.983 130.32L103.234 130.286V130.542C103.234 130.683 103.268 133.986 101.223 135.868C99.9174 137.073 98.3448 137.95 96.6346 138.428C96.8128 139.902 97.0717 141.365 97.41 142.81C97.5036 142.047 97.7224 141.304 98.0575 140.613C99.4336 138.052 102.966 136.853 103.115 136.802L103.358 136.725L103.409 136.977C103.434 137.114 104.056 140.429 102.335 142.682C101.251 144.106 99.8507 145.257 98.2451 146.045C98.6549 147.458 99.1413 148.849 99.7021 150.209C99.6597 149.417 99.7475 148.622 99.962 147.858C100.891 145.029 104.222 143.216 104.367 143.139L104.597 143.015L104.687 143.258C104.738 143.391 105.965 146.608 104.619 149.177C103.785 150.796 102.586 152.198 101.117 153.273C101.747 154.498 102.446 155.714 103.2 156.892C103.049 156.174 103.013 155.436 103.093 154.707C103.519 151.72 106.553 149.288 106.681 149.185L106.881 149.027L107.017 149.249C107.094 149.373 108.875 152.39 107.993 155.223C107.452 156.961 106.524 158.553 105.279 159.878C106.084 160.932 106.949 161.965 107.835 162.964C107.592 162.322 107.449 161.647 107.409 160.962C107.311 157.869 109.927 154.903 110.038 154.779L110.212 154.587L110.379 154.784C110.477 154.895 112.803 157.608 112.411 160.591C112.179 162.416 111.541 164.166 110.545 165.712C111.491 166.595 112.479 167.444 113.497 168.272C113.159 167.693 112.906 167.068 112.747 166.416C112.1 163.326 114.209 159.883 114.298 159.738L114.435 159.52L114.631 159.682C114.75 159.776 117.566 162.089 117.702 165.152C117.788 167.023 117.455 168.89 116.727 170.614C117.856 171.361 119.01 172.052 120.165 172.68C119.666 172.115 119.257 171.476 118.955 170.785C117.758 167.798 119.262 163.958 119.33 163.804L119.424 163.565L119.649 163.689C119.786 163.766 123.019 165.588 123.701 168.643C124.125 170.53 124.113 172.488 123.667 174.369C124.861 174.875 126.081 175.316 127.322 175.692C126.73 175.219 126.214 174.658 125.793 174.028C124.063 171.242 124.898 167.124 124.941 166.949L124.992 166.697L125.235 166.783C125.388 166.834 128.958 168.093 130.181 171.05C130.902 172.797 131.24 174.678 131.174 176.567C133.303 176.977 135.398 177.548 137.441 178.274C138.659 178.7 139.844 179.183 140.964 179.69C142.08 179.187 143.265 178.709 144.488 178.274C146.532 177.551 148.626 176.98 150.755 176.567C150.683 174.678 151.022 172.795 151.747 171.05C152.97 168.105 156.54 166.847 156.694 166.783L156.936 166.697L156.988 166.949C157.026 167.124 157.861 171.242 156.135 174.028C155.714 174.658 155.198 175.219 154.606 175.692C155.848 175.318 157.068 174.877 158.261 174.369C157.817 172.488 157.807 170.529 158.232 168.643C158.909 165.588 162.143 163.766 162.283 163.689L162.505 163.565L162.603 163.804C162.667 163.966 164.171 167.798 162.978 170.785C162.673 171.476 162.261 172.116 161.759 172.68C162.922 172.052 164.077 171.361 165.202 170.614C164.475 168.889 164.142 167.023 164.226 165.152C164.362 162.089 167.178 159.776 167.298 159.682L167.498 159.52L167.63 159.738C167.719 159.883 169.828 163.326 169.181 166.416C169.022 167.069 168.769 167.695 168.431 168.276C169.441 167.474 170.433 166.625 171.388 165.716C170.388 164.171 169.749 162.421 169.517 160.595C169.13 157.608 171.452 154.899 171.55 154.788L171.72 154.591L171.89 154.784C172.001 154.907 174.621 157.873 174.523 160.967C174.481 161.653 174.338 162.328 174.097 162.972C174.996 161.982 175.861 160.949 176.675 159.883C175.431 158.556 174.503 156.965 173.961 155.227C173.083 152.415 174.864 149.399 174.941 149.253L175.073 149.032L175.277 149.189C175.405 149.292 178.434 151.707 178.865 154.711C178.942 155.444 178.903 156.184 178.75 156.904C179.512 155.722 180.211 154.506 180.842 153.277C179.371 152.203 178.17 150.801 177.335 149.181C176.006 146.621 177.216 143.395 177.267 143.263L177.361 143.019L177.587 143.143C177.727 143.22 181.063 145.033 181.992 147.862C182.208 148.628 182.296 149.424 182.252 150.218C182.816 148.857 183.302 147.465 183.709 146.049C182.104 145.262 180.705 144.111 179.623 142.686C177.919 140.433 178.52 137.139 178.545 136.981L178.596 136.73L178.839 136.806C178.988 136.858 182.52 138.04 183.896 140.617C184.232 141.31 184.452 142.054 184.548 142.819C184.886 141.372 185.145 139.907 185.324 138.432C183.612 137.957 182.039 137.08 180.735 135.872C178.686 133.99 178.72 130.687 178.724 130.547V130.291L178.976 130.325C179.129 130.35 182.742 130.888 184.514 133.141C184.988 133.817 185.348 134.567 185.579 135.36C185.653 133.727 185.633 132.092 185.519 130.461C183.783 130.285 182.113 129.7 180.646 128.754C178.349 127.287 177.821 124.091 177.8 123.954L177.761 123.698H178.017H178.153C178.771 123.698 181.954 123.783 183.837 125.477C184.393 126.026 184.855 126.664 185.204 127.363C184.979 125.728 184.667 124.106 184.271 122.503C184.016 122.524 183.751 122.533 183.479 122.533C182.043 122.525 180.624 122.235 179.299 121.68C176.833 120.651 175.776 117.656 175.733 117.528L175.648 117.285L175.9 117.233C176.602 117.102 177.315 117.037 178.03 117.041C179.359 116.986 180.678 117.302 181.839 117.954C182.457 118.378 183.001 118.902 183.449 119.503C182.952 117.937 182.374 116.398 181.719 114.891C180.854 115.119 179.964 115.233 179.069 115.232C178.278 115.233 177.489 115.146 176.717 114.972C174.161 114.404 172.632 111.686 172.568 111.558L172.444 111.336L172.683 111.238C173.849 110.8 175.081 110.564 176.326 110.543C177.076 110.529 177.822 110.66 178.524 110.927C179.364 111.323 180.123 111.871 180.765 112.544L181.097 112.924C181.097 112.497 181.097 112.006 181.123 111.861C180.845 110.792 180.783 109.678 180.94 108.584C181.506 105.943 184.348 103.988 184.459 103.89L184.672 103.745L184.791 103.976C184.851 104.091 186.248 106.877 185.294 109.322C184.676 110.908 183.687 112.322 182.409 113.444C183.119 114.944 183.751 116.48 184.305 118.044C184.325 117.347 184.455 116.657 184.689 116C185.724 113.44 188.919 111.985 189.056 111.925L189.29 111.818L189.367 112.066C189.405 112.194 190.312 115.241 188.919 117.524C188.019 119.009 186.775 120.256 185.294 121.159C185.72 122.687 186.082 124.248 186.359 125.81C186.5 125.174 186.738 124.564 187.066 124.001C188.553 121.624 192.021 120.724 192.179 120.685L192.426 120.626L192.455 120.877C192.455 121.014 192.852 124.231 191.049 126.28C189.906 127.595 188.466 128.619 186.849 129.266C187.002 130.756 187.079 132.253 187.083 133.747C187.323 133.203 187.64 132.698 188.025 132.245C189.942 130.111 193.584 129.83 193.738 129.817H193.993V130.073C193.993 130.214 193.793 133.512 191.625 135.249C190.258 136.349 188.653 137.113 186.938 137.481C186.82 138.905 186.629 140.322 186.367 141.726C186.707 141.215 187.121 140.756 187.594 140.365C189.222 139.085 191.586 138.906 192.852 138.906C193.397 138.906 193.746 138.944 193.759 138.944L194.015 138.97L193.959 139.222C193.925 139.358 193.146 142.635 190.658 143.996C189.081 144.865 187.322 145.349 185.524 145.409C185.192 146.747 184.794 148.067 184.331 149.364C184.751 148.932 185.23 148.561 185.754 148.264C186.806 147.749 187.967 147.498 189.137 147.534C190.17 147.536 191.2 147.67 192.2 147.931L192.447 147.999L192.345 148.238C192.289 148.37 190.93 151.528 188.191 152.45C186.969 152.862 185.688 153.073 184.399 153.072C183.88 153.074 183.362 153.039 182.848 152.966C182.26 154.225 181.6 155.471 180.884 156.691C181.405 156.306 181.979 156 182.588 155.782C183.208 155.592 183.853 155.498 184.501 155.505C186.097 155.553 187.666 155.923 189.115 156.593L189.35 156.704L189.209 156.921C189.128 157.045 187.202 159.968 184.293 160.412C183.689 160.502 183.079 160.548 182.469 160.548C181.21 160.551 179.959 160.352 178.763 159.96C177.945 161.112 177.058 162.242 176.125 163.339C176.741 163.021 177.402 162.8 178.085 162.682C178.341 162.647 178.598 162.63 178.856 162.631C181.677 162.631 184.395 164.568 184.506 164.649L184.714 164.803L184.54 164.99C184.437 165.097 182.056 167.627 179.108 167.627H178.984C177.063 167.587 175.179 167.09 173.488 166.177C172.478 167.179 171.422 168.148 170.335 169.057C170.977 168.861 171.642 168.752 172.312 168.733H172.461C175.614 168.852 178.426 171.72 178.558 171.848L178.737 172.035L178.532 172.189C178.439 172.262 176.168 173.956 173.569 173.956C173.206 173.956 172.844 173.922 172.487 173.853C170.577 173.472 168.783 172.646 167.251 171.442C166.156 172.219 165.035 172.948 163.902 173.618C164.175 173.618 164.435 173.584 164.682 173.584C165.077 173.58 165.471 173.618 165.858 173.695C169.002 174.374 171.332 177.762 171.43 177.907L171.575 178.12L171.345 178.24C170.049 178.859 168.636 179.197 167.2 179.23C166.442 179.238 165.689 179.105 164.98 178.837C163.165 178.128 161.537 177.011 160.221 175.573C159.058 176.124 157.868 176.617 156.655 177.049C157.29 177.105 157.913 177.248 158.509 177.476C161.542 178.713 163.289 182.532 163.361 182.694L163.463 182.929L163.221 183.006C162.294 183.265 161.336 183.395 160.375 183.394C159.095 183.434 157.829 183.116 156.719 182.477C154.983 181.422 153.522 179.968 152.459 178.235C149.408 178.78 146.43 179.677 143.584 180.907C147.926 183.258 149.715 185.361 149.792 185.451L149.932 185.622L147.943 187.405L147.662 187.247Z" fill="#008A3F"></path><path d="M75.1366 204.581L73.573 209.334H71.5578L76.6703 194.225H79.0178L84.1686 209.334H82.0852L80.4749 204.581H75.1366ZM80.0829 203.057L78.6088 198.709C78.2722 197.724 78.0464 196.828 77.8248 195.953H77.778C77.5565 196.849 77.3094 197.766 77.0197 198.688L75.5413 203.057H80.0829Z" fill="black"></path><path d="M86.3926 194.22H88.3396V207.695H94.7856V209.329H86.3926V194.22Z" fill="black"></path><path d="M107.571 208.659C106.084 209.197 104.517 209.478 102.936 209.492C100.652 209.492 98.7734 208.907 97.295 207.495C96.0169 206.24 95.1945 204.222 95.1945 201.87C95.2159 197.364 98.3047 194.066 103.362 194.066C104.65 194.036 105.931 194.273 107.124 194.762L106.651 196.353C105.601 195.895 104.464 195.674 103.319 195.705C99.6467 195.705 97.2524 197.992 97.2524 201.781C97.2524 205.57 99.5572 207.879 103.072 207.879C103.957 207.92 104.841 207.775 105.667 207.452V202.967H102.582V201.397H107.554L107.571 208.659Z" fill="black"></path><path d="M118.346 202.25H112.483V207.699H119.019V209.334H110.549V194.22H118.695V195.858H112.496V200.62H118.346V202.25Z" fill="black"></path><path d="M132.103 208.839C130.841 209.36 129.483 209.606 128.119 209.56C123.859 209.56 120.663 206.868 120.663 201.913C120.663 197.186 123.863 193.977 128.541 193.977C129.771 193.926 130.996 194.156 132.124 194.651L131.655 196.243C130.698 195.811 129.658 195.597 128.609 195.615C125.073 195.615 122.721 197.881 122.721 201.845C122.721 205.545 124.851 207.922 128.519 207.922C129.611 207.937 130.694 207.723 131.698 207.294L132.103 208.839Z" fill="black"></path><path d="M136.486 194.22V209.329H134.535V194.22H136.486Z" fill="black"></path><path d="M139.891 194.425C141.124 194.206 142.375 194.102 143.627 194.113C145.71 194.113 147.035 194.493 147.994 195.346C148.383 195.712 148.691 196.158 148.895 196.652C149.099 197.147 149.196 197.679 149.178 198.214C149.186 199.076 148.912 199.918 148.399 200.611C147.887 201.303 147.162 201.81 146.336 202.054V202.122C147.5 202.524 148.194 203.599 148.552 205.169C149.046 207.277 149.404 208.732 149.715 209.317H147.7C147.457 208.89 147.12 207.61 146.694 205.707C146.247 203.624 145.442 202.839 143.674 202.771H141.837V209.317H139.891V194.425ZM141.837 201.307H143.831C145.91 201.307 147.24 200.164 147.24 198.44C147.24 196.49 145.829 195.636 143.772 195.615C143.125 195.597 142.478 195.657 141.846 195.794L141.837 201.307Z" fill="black"></path><path d="M154.482 204.581L152.915 209.334H150.904L156.016 194.225H158.393L163.544 209.334H161.461L159.85 204.581H154.482ZM159.429 203.057L157.95 198.709C157.618 197.724 157.392 196.828 157.171 195.953H157.115C156.894 196.849 156.647 197.766 156.353 198.688L154.879 203.057H159.429Z" fill="black"></path><path d="M165.474 206.957C166.529 207.591 167.734 207.932 168.964 207.943C170.957 207.943 172.121 206.889 172.121 205.383C172.121 203.97 171.315 203.164 169.279 202.396C166.816 201.542 165.295 200.262 165.295 198.129C165.295 195.773 167.242 194.024 170.173 194.024C171.33 193.983 172.478 194.239 173.509 194.766L172.973 196.358C172.091 195.884 171.106 195.638 170.105 195.641C168.048 195.641 167.264 196.874 167.264 197.902C167.264 199.315 168.18 200.01 170.246 200.817C172.802 201.802 174.08 203.036 174.08 205.255C174.08 207.589 172.355 209.607 168.797 209.607C167.458 209.621 166.137 209.289 164.963 208.643L165.474 206.957Z" fill="black"></path><path d="M192.051 208.839C190.789 209.361 189.431 209.607 188.067 209.56C183.807 209.56 180.611 206.867 180.611 201.913C180.611 197.185 183.815 193.977 188.493 193.977C189.722 193.926 190.946 194.157 192.072 194.651L191.603 196.242C190.647 195.811 189.606 195.596 188.557 195.615C185.021 195.615 182.674 197.881 182.674 201.845C182.674 205.545 184.804 207.921 188.468 207.921C189.559 207.937 190.642 207.723 191.646 207.294L192.051 208.839Z" fill="black"></path><path d="M193.964 208.169C193.952 207.986 193.978 207.802 194.041 207.63C194.103 207.457 194.201 207.3 194.328 207.167C194.454 207.034 194.607 206.929 194.776 206.859C194.945 206.788 195.127 206.753 195.31 206.757C195.592 206.743 195.872 206.814 196.114 206.962C196.355 207.109 196.547 207.325 196.665 207.583C196.782 207.841 196.82 208.128 196.773 208.407C196.726 208.686 196.597 208.945 196.401 209.15C196.206 209.355 195.954 209.496 195.678 209.556C195.401 209.616 195.113 209.592 194.851 209.486C194.588 209.381 194.364 209.199 194.206 208.964C194.047 208.729 193.963 208.452 193.964 208.169Z" fill="black"></path><path d="M199.136 194.22H207.26V195.858H201.083V200.876H206.792V202.494H201.083V209.321H199.136V194.22Z" fill="black"></path><path d="M207.329 208.169C207.316 207.987 207.342 207.803 207.404 207.631C207.466 207.458 207.563 207.301 207.69 207.168C207.816 207.035 207.968 206.93 208.137 206.859C208.306 206.788 208.488 206.754 208.671 206.757C209.026 206.787 209.356 206.951 209.596 207.214C209.836 207.478 209.968 207.823 209.965 208.179C209.962 208.536 209.826 208.879 209.582 209.139C209.338 209.399 209.005 209.557 208.649 209.582C208.468 209.582 208.289 209.545 208.122 209.473C207.956 209.401 207.806 209.296 207.682 209.163C207.558 209.031 207.463 208.874 207.402 208.703C207.341 208.532 207.316 208.351 207.329 208.169Z" fill="black"></path><path d="M81.1011 222.886H59.1132L81.1011 283.598V222.886Z" fill="white"></path><path d="M81.1011 222.886V283.602L104.504 348.214V222.886H81.1011Z" fill="#E31038"></path><path d="M104.504 222.886V348.218L127.906 415.1V222.886H104.504Z" fill="white"></path><path d="M127.906 415.1L140.006 446.237L151.304 415.015V222.886H127.906V415.1Z" fill="#E31038"></path><path d="M151.308 415.011L174.707 350.364V222.886H151.308V415.011Z" fill="white"></path><path d="M174.707 350.369L198.109 285.723V222.886H174.707V350.369Z" fill="#E31038"></path><path d="M198.105 285.731L220.855 222.886H198.105V285.731Z" fill="white"></path></g><defs><clipPath id="clip0_1749_1122"><rect width="279.206" height="472.68" fill="white"></rect></clipPath></defs></svg>